# File created by Blade
# Date/Time:  Wed Jan 21 19:08:52 2015
# Frame Rate: 120.000 fps
#------------------------------------------------------
:FULLY-SPECIFIED
:DEGREES
3022
root -6.283041 31.859030 -6.161306 55.905109 16.632592 -4.228262
RightUpLeg -58.722992 3.004473 8.126407
RightLeg -6.538597 -0.000000 0.000000
RightFoot -4.658399 -11.964725 14.980578
RightToeBase 23.754919 -0.000000 -0.000000
LeftUpLeg -47.013891 -10.259382 -4.411578
LeftLeg -2.231122 -0.000000 0.000000
LeftFoot -8.423199 -13.316801 -4.374865
LeftToeBase 18.105786 -0.000000 -0.000000
Spine -41.130275 22.248057 34.638949
RightShoulder -10.801198 17.103668 -2.516121
RightArm -5.334034 -13.064818 72.377256
RightForeArm 18.856763 -0.000000 -2.959036
RightHand 19.264657 0.000000 -9.737385
RightHandThumb1 -24.326973 -0.000000 -32.862282
LeftShoulder -18.594119 -16.176270 69.134903
LeftArm 28.689338 -33.800722 7.727792
LeftForeArm 8.462439 -0.000000 9.465360
LeftHand -23.925175 -0.000000 22.235170
LeftHandThumb1 -26.253704 0.000000 33.147579
Head -18.229164 -15.354595 60.937143
3023
root -6.283104 31.858657 -6.171548 55.926870 16.660774 -4.227882
RightUpLeg -58.787522 2.998268 8.133259
RightLeg -6.491156 -0.000000 0.000000
RightFoot -4.667762 -11.988794 14.942775
RightToeBase 23.762977 -0.000000 -0.000000
LeftUpLeg -47.059981 -10.271890 -4.400212
LeftLeg -2.216873 -0.000000 0.000000
LeftFoot -8.428597 -13.299063 -4.446249
LeftToeBase 18.173765 -0.000000 -0.000000
Spine -41.117230 22.246133 34.651915
RightShoulder -10.789462 17.119715 -2.522949
RightArm -5.355206 -13.033750 72.384819
RightForeArm 18.854888 -0.000000 -2.975829
RightHand 19.285148 -0.000000 -9.698184
RightHandThumb1 -24.326973 -0.000000 -32.862282
LeftShoulder -18.601690 -16.176818 69.145041
LeftArm 28.724183 -33.806762 7.691766
LeftForeArm 8.579688 -0.000000 9.472939
LeftHand -23.833534 -0.000000 22.155819
LeftHandThumb1 -26.253704 0.000000 33.147579
Head -18.270027 -15.337870 60.919396
3024
root -6.281566 31.858369 -6.182447 55.934079 16.692498 -4.224594
RightUpLeg -58.832751 2.972395 8.144158
RightLeg -6.458514 -0.000000 0.000000
RightFoot -4.959325 -12.009945 15.593563
RightToeBase 24.341638 -0.000000 -0.000000
LeftUpLeg -47.134106 -10.059382 -4.638582
LeftLeg -2.027740 -0.000000 0.000000
LeftFoot -8.512130 -13.733371 -4.587812
LeftToeBase 18.437003 -0.000000 -0.000000
Spine -41.091768 22.241541 34.670343
RightShoulder -10.788224 17.111983 -2.529149
RightArm -5.345976 -13.032873 72.384317
RightForeArm 18.900467 -0.000000 -2.997278
RightHand 19.214128 0.000000 -9.703755
RightHandThumb1 -24.326973 -0.000000 -32.862282
LeftShoulder -18.599716 -16.177123 69.148746
LeftArm 28.730775 -33.805610 7.666854
LeftForeArm 8.604324 0.000000 9.508653
LeftHand -23.808600 -0.000000 22.188333
LeftHandThumb1 -26.253704 0.000000 33.147579
Head -18.314880 -15.342931 60.893036
3025
root -6.281465 31.856875 -6.193232 55.940033 16.722277 -4.224397
RightUpLeg -58.875159 2.977208 8.129657
RightLeg -6.420717 -0.000000 0.000000
RightFoot -4.735697 -12.041275 15.045211
RightToeBase 23.828749 -0.000000 -0.000000
LeftUpLeg -47.166351 -9.995292 -4.710775
LeftLeg -1.983501 -0.000000 0.000000
LeftFoot -8.515213 -13.789880 -4.473379
LeftToeBase 18.331204 -0.000000 -0.000000
Spine -41.072432 22.233265 34.681434
RightShoulder -10.780954 17.078300 -2.504465
RightArm -5.305068 -13.129658 72.369270
RightForeArm 19.061739 -0.000000 -3.045745
RightHand 19.189100 -0.000000 -9.721839
RightHandThumb1 -24.326973 -0.000000 -32.862282
LeftShoulder -18.585293 -16.158555 69.142954
LeftArm 28.723761 -33.798378 7.682470
LeftForeArm 8.558450 -0.000000 9.535067
LeftHand -23.781147 -0.000000 22.198201
LeftHandThumb1 -26.253704 0.000000 33.147579
Head -18.339508 -15.304031 60.870994
3026
root -6.281094 31.856968 -6.202349 55.941262 16.746970 -4.220262
RightUpLeg -58.897523 2.960058 8.127912
RightLeg -6.414973 -0.000000 0.000000
RightFoot -4.950425 -12.060827 15.551758
RightToeBase 24.294657 -0.000000 -0.000000
LeftUpLeg -47.169797 -10.004492 -4.712497
LeftLeg -1.997898 -0.000000 0.000000
LeftFoot -8.520582 -13.841978 -4.650303
LeftToeBase 18.553812 -0.000000 -0.000000
Spine -41.049769 22.231827 34.681185
RightShoulder -10.789900 17.062742 -2.485601
RightArm -5.273515 -13.196091 72.342669
RightForeArm 19.216737 -0.000000 -3.106270
RightHand 19.344059 -0.000000 -9.807355
RightHandThumb1 -24.326973 -0.000000 -32.862282
LeftShoulder -18.616503 -16.220551 69.174677
LeftArm 28.818396 -33.794134 7.583878
LeftForeArm 8.546149 -0.000000 9.563599
LeftHand -23.772948 -0.000000 22.296410
LeftHandThumb1 -26.253704 0.000000 33.147579
Head -18.368067 -15.346877 60.872046
3027
root -6.280705 31.855034 -6.211446 55.944014 16.785829 -4.222305
RightUpLeg -58.910524 2.959173 8.111418
RightLeg -6.427198 -0.000000 0.000000
RightFoot -4.985424 -12.126675 15.630537
RightToeBase 24.368148 -0.000000 -0.000000
LeftUpLeg -47.182941 -10.003005 -4.716996
LeftLeg -1.998096 -0.000000 0.000000
LeftFoot -8.506244 -13.793255 -4.500643
LeftToeBase 18.353210 -0.000000 -0.000000
Spine -41.036288 22.232485 34.693645
RightShoulder -10.811437 16.995441 -2.479708
RightArm -5.178672 -13.349440 72.333895
RightForeArm 19.323438 0.000000 -3.226584
RightHand 19.512834 -0.000000 -9.856451
RightHandThumb1 -24.326973 -0.000000 -32.862282
LeftShoulder -18.569924 -16.175011 69.141035
LeftArm 28.753934 -33.881338 7.613300
LeftForeArm 8.555093 -0.000000 9.644036
LeftHand -23.804840 -0.000000 22.206652
LeftHandThumb1 -26.253704 0.000000 33.147579
Head -18.391501 -15.371576 60.851827
3028
root -6.279341 31.854307 -6.219702 55.943453 16.826108 -4.216387
RightUpLeg -58.921819 2.924381 8.143106
RightLeg -6.431493 -0.000000 0.000000
RightFoot -5.003561 -12.104066 15.680616
RightToeBase 24.454065 -0.000000 -0.000000
LeftUpLeg -47.180650 -10.006805 -4.732330
LeftLeg -2.014333 -0.000000 0.000000
LeftFoot -8.501879 -13.786999 -4.469586
LeftToeBase 18.395449 -0.000000 -0.000000
Spine -41.026314 22.233391 34.702826
RightShoulder -10.820168 16.966836 -2.478238
RightArm -5.162426 -13.362774 72.312460
RightForeArm 19.330735 0.000000 -3.260468
RightHand 19.567199 0.000000 -9.890670
RightHandThumb1 -24.326973 -0.000000 -32.862282
LeftShoulder -18.546018 -16.165786 69.129672
LeftArm 28.753478 -33.940665 7.582992
LeftForeArm 8.540768 -0.000000 9.700911
LeftHand -23.808984 -0.000000 22.228805
LeftHandThumb1 -26.253704 0.000000 33.147579
Head -18.398724 -15.384862 60.822818
3029
root -6.278299 31.852685 -6.228418 55.944329 16.869395 -4.209065
RightUpLeg -58.932181 2.897949 8.170581
RightLeg -6.431422 -0.000000 0.000000
RightFoot -4.695259 -12.100577 14.966710
RightToeBase 23.764766 -0.000000 -0.000000
LeftUpLeg -47.188953 -10.022639 -4.732915
LeftLeg -2.013157 -0.000000 0.000000
LeftFoot -8.507399 -13.785128 -4.480776
LeftToeBase 18.412673 -0.000000 -0.000000
Spine -41.014232 22.225631 34.714031
RightShoulder -10.825687 16.921253 -2.475292
RightArm -5.138008 -13.361398 72.288284
RightForeArm 19.358884 -0.000000 -3.259794
RightHand 19.621080 -0.000000 -9.853195
RightHandThumb1 -24.326973 -0.000000 -32.862282
LeftShoulder -18.575035 -16.288603 69.222374
LeftArm 28.809205 -33.821587 7.457236
LeftForeArm 8.530229 0.000000 9.753312
LeftHand -23.819273 -0.000000 22.326411
LeftHandThumb1 -26.253704 0.000000 33.147579
Head -18.402452 -15.453193 60.801292
3030
root -6.277327 31.852267 -6.236891 55.941798 16.908658 -4.210058
RightUpLeg -58.927137 2.871480 8.182465
RightLeg -6.468526 -0.000000 0.000000
RightFoot -4.885040 -12.126485 15.483436
RightToeBase 24.257428 -0.000000 -0.000000
LeftUpLeg -47.194807 -10.027579 -4.735286
LeftLeg -2.014670 -0.000000 0.000000
LeftFoot -8.506835 -13.778561 -4.459963
LeftToeBase 18.451182 -0.000000 -0.000000
Spine -41.011767 22.241373 34.711525
RightShoulder -10.840322 16.906964 -2.478767
RightArm -5.165319 -13.301136 72.257848
RightForeArm 19.286446 -0.000000 -3.239593
RightHand 19.597628 0.000000 -9.858833
RightHandThumb1 -24.326973 -0.000000 -32.862282
LeftShoulder -18.535171 -16.152919 69.143169
LeftArm 28.811152 -33.913915 7.542024
LeftForeArm 8.422824 0.000000 9.697899
LeftHand -23.916299 -0.000000 22.281400
LeftHandThumb1 -26.253704 0.000000 33.147579
Head -18.400536 -15.447092 60.797455
3031
root -6.276875 31.851504 -6.245379 55.941240 16.937314 -4.209597
RightUpLeg -58.938559 2.855418 8.205624
RightLeg -6.467520 -0.000000 0.000000
RightFoot -4.692676 -12.097853 15.063044
RightToeBase 23.850386 -0.000000 -0.000000
LeftUpLeg -47.206273 -10.037023 -4.735465
LeftLeg -2.011242 -0.000000 0.000000
LeftFoot -8.528076 -13.784955 -4.496748
LeftToeBase 18.556669 -0.000000 -0.000000
Spine -41.002510 22.247173 34.711294
RightShoulder -10.834497 16.872138 -2.471517
RightArm -5.188551 -13.194198 72.219780
RightForeArm 19.165639 -0.000000 -3.167906
RightHand 19.452297 -0.000000 -9.932888
RightHandThumb1 -24.326973 -0.000000 -32.862282
LeftShoulder -18.527969 -16.109834 69.137194
LeftArm 28.782695 -33.716052 7.711080
LeftForeArm 8.151151 -0.000000 9.575057
LeftHand -23.866189 -0.000000 22.271590
LeftHandThumb1 -26.253704 0.000000 33.147579
Head -18.377431 -15.476624 60.787222
3032
root -6.275552 31.850374 -6.254274 55.945733 16.964796 -4.205936
RightUpLeg -58.952092 2.822374 8.246298
RightLeg -6.471413 -0.000000 0.000000
RightFoot -4.608815 -12.090244 14.904945
RightToeBase 23.700062 -0.000000 -0.000000
LeftUpLeg -47.226837 -10.042771 -4.745412
LeftLeg -1.997963 -0.000000 0.000000
LeftFoot -8.533250 -13.794705 -4.481512
LeftToeBase 18.556320 -0.000000 -0.000000
Spine -40.992506 22.258118 34.711414
RightShoulder -10.823605 16.837765 -2.480444
RightArm -5.234621 -13.054220 72.196174
RightForeArm 19.025537 -0.000000 -3.063097
RightHand 19.330241 -0.000000 -10.005002
RightHandThumb1 -24.326973 -0.000000 -32.862282
LeftShoulder -18.529493 -16.094192 69.135064
LeftArm 28.879323 -33.841327 7.582405
LeftForeArm 8.379873 -0.000000 9.548052
LeftHand -23.839639 -0.000000 22.316131
LeftHandThumb1 -26.253704 0.000000 33.147579
Head -18.355508 -15.503905 60.758720
